<svg width="1500" height="1500" viewBox="0 0 1500 1500" fill="none" xmlns="http://www.w3.org/2000/svg">
<rect x="431.5" y="37" width="637" height="637" rx="318.5" fill="#F63737"/>
<rect x="431.5" y="674" width="637" height="637" rx="318.5" fill="#F63737"/>
<rect x="113" y="355.5" width="637" height="637" rx="318.5" fill="#F63737"/>
<rect x="750" y="355.5" width="637" height="637" rx="318.5" fill="#F63737"/>
<path d="M487.084 739.3C487.084 756.1 482.95 770.767 474.684 783.3C466.417 795.833 454.417 805.567 438.684 812.5C423.217 819.167 404.284 822.5 381.884 822.5C372.017 822.5 362.284 821.833 352.684 820.5C343.35 819.167 334.284 817.3 325.484 814.9C316.95 812.233 308.817 809.033 301.084 805.3V748.9C314.684 754.767 328.684 760.233 343.084 765.3C357.75 770.1 372.284 772.5 386.684 772.5C396.55 772.5 404.417 771.167 410.284 768.5C416.417 765.833 420.817 762.233 423.484 757.7C426.417 753.167 427.884 747.967 427.884 742.1C427.884 734.9 425.35 728.767 420.284 723.7C415.484 718.633 408.95 713.967 400.684 709.7C392.417 705.167 382.95 700.367 372.284 695.3C365.617 692.1 358.417 688.367 350.684 684.1C342.95 679.567 335.484 674.1 328.284 667.7C321.35 661.033 315.617 653.033 311.084 643.7C306.55 634.367 304.284 623.167 304.284 610.1C304.284 593.033 308.15 578.5 315.884 566.5C323.884 554.233 335.084 544.9 349.484 538.5C364.15 532.1 381.35 528.9 401.084 528.9C416.017 528.9 430.15 530.633 443.484 534.1C457.084 537.567 471.217 542.5 485.884 548.9L466.284 596.1C453.217 590.767 441.484 586.633 431.084 583.7C420.684 580.767 410.017 579.3 399.084 579.3C391.617 579.3 385.217 580.5 379.884 582.9C374.55 585.3 370.417 588.633 367.484 592.9C364.817 597.167 363.484 602.233 363.484 608.1C363.484 614.767 365.484 620.5 369.484 625.3C373.484 629.833 379.484 634.233 387.484 638.5C395.484 642.767 405.484 647.833 417.484 653.7C432.15 660.633 444.55 667.833 454.684 675.3C465.084 682.767 473.084 691.567 478.684 701.7C484.284 711.833 487.084 724.367 487.084 739.3Z" fill="white"/>
<path d="M1238.42 548.541L1141.22 834.141H1075.22L978.422 548.541H1039.62L1093.22 718.541C1094.29 721.474 1095.76 726.941 1097.62 734.941C1099.76 742.674 1101.89 750.941 1104.02 759.741C1106.16 768.274 1107.62 775.474 1108.42 781.341C1109.22 775.474 1110.56 768.274 1112.42 759.741C1114.56 750.941 1116.69 742.674 1118.82 734.941C1120.96 726.941 1122.42 721.474 1123.22 718.541L1177.22 548.541H1238.42Z" fill="white"/>
<path d="M751.614 190.041C788.414 190.041 815.214 198.041 832.014 214.041C849.081 229.774 857.614 251.508 857.614 279.241C857.614 291.774 855.747 303.774 852.014 315.241C848.281 326.441 842.014 336.574 833.214 345.641C824.681 354.441 813.347 361.374 799.214 366.441C785.081 371.508 767.614 374.041 746.814 374.041H720.814V475.641H660.414V190.041H751.614ZM748.414 239.641H720.814V324.441H740.814C752.281 324.441 762.147 322.974 770.414 320.041C778.681 317.108 785.081 312.441 789.614 306.041C794.147 299.641 796.414 291.374 796.414 281.241C796.414 267.108 792.547 256.708 784.814 250.041C777.081 243.108 764.947 239.641 748.414 239.641Z" fill="white"/>
<path d="M740.425 907.041C765.758 907.041 786.958 909.441 804.025 914.241C821.358 918.774 834.292 926.374 842.825 937.041C851.625 947.441 856.025 961.574 856.025 979.441C856.025 990.108 854.292 999.841 850.825 1008.64C847.358 1017.44 842.292 1024.64 835.625 1030.24C829.225 1035.84 821.358 1039.44 812.025 1041.04V1043.04C821.625 1044.91 830.292 1048.24 838.025 1053.04C845.758 1057.84 851.892 1064.77 856.425 1073.84C860.958 1082.91 863.225 1094.91 863.225 1109.84C863.225 1127.17 858.958 1142.11 850.425 1154.64C842.158 1166.91 830.158 1176.37 814.425 1183.04C798.692 1189.44 780.025 1192.64 758.425 1192.64H651.625V907.041H740.425ZM747.225 1020.24C764.825 1020.24 776.958 1017.44 783.625 1011.84C790.558 1006.24 794.025 998.108 794.025 987.441C794.025 976.508 790.025 968.641 782.025 963.841C774.025 959.041 761.358 956.641 744.025 956.641H712.025V1020.24H747.225ZM712.025 1068.24V1142.64H751.625C769.758 1142.64 782.425 1139.17 789.625 1132.24C796.825 1125.04 800.425 1115.57 800.425 1103.84C800.425 1096.64 798.825 1090.37 795.625 1085.04C792.692 1079.71 787.492 1075.57 780.025 1072.64C772.558 1069.71 762.425 1068.24 749.625 1068.24H712.025Z" fill="white"/>
<path d="M614.956 932.622C483.734 932.622 191.988 1007.79 191.988 1463.24" stroke="#F63737" stroke-width="32" stroke-linejoin="round"/>
</svg>
